<svg viewBox="0 0 1024 1024" width="1024" height="1024" xmlns="http://www.w3.org/2000/svg">
<defs>
<filter id="sm-glow" x="-40%" y="-40%" width="180%" height="180%"><feDropShadow dx="0" dy="0" stdDeviation="14" flood-color="#38BDF8" flood-opacity="0.9"/></filter>
<filter id="sm-sh" x="-20%" y="-20%" width="140%" height="140%"><feDropShadow dx="-8" dy="16" stdDeviation="14" flood-color="#000" flood-opacity="0.85"/></filter>
<linearGradient id="sm-base" x1="0%" y1="0%" x2="100%" y2="100%"><stop offset="0%" stop-color="#12306B"/><stop offset="45%" stop-color="#0B1F4A"/><stop offset="100%" stop-color="#040D24"/></linearGradient>
<radialGradient id="sm-bg" cx="30%" cy="22%" r="80%"><stop offset="0%" stop-color="#38BDF8" stop-opacity="0.34"/><stop offset="55%" stop-color="#38BDF8" stop-opacity="0.1"/><stop offset="100%" stop-color="#38BDF8" stop-opacity="0"/></radialGradient>
<linearGradient id="sm-rim" x1="15%" y1="10%" x2="85%" y2="90%"><stop offset="0%" stop-color="#E0F2FE" stop-opacity="0.95"/><stop offset="28%" stop-color="#38BDF8" stop-opacity="0.85"/><stop offset="62%" stop-color="#0369A1" stop-opacity="0.4"/><stop offset="100%" stop-color="#082F49" stop-opacity="0.15"/></linearGradient>
<linearGradient id="sm-spec" x1="0" y1="0" x2="0" y2="1"><stop offset="0%" stop-color="#fff" stop-opacity="0.26"/><stop offset="35%" stop-color="#fff" stop-opacity="0.05"/><stop offset="100%" stop-color="#fff" stop-opacity="0"/></linearGradient>
<clipPath id="sm-clip"><rect x="51.2" y="51.2" width="921.6" height="921.6" rx="202.75" ry="202.75"/></clipPath>
<linearGradient id="sm-d" x1="0%" y1="0%" x2="100%" y2="100%"><stop offset="0" stop-color="#475569"/><stop offset="0.5" stop-color="#1E293B"/><stop offset="1" stop-color="#0B1220"/></linearGradient><linearGradient id="sm-m" x1="0%" y1="0%" x2="100%" y2="100%"><stop offset="0" stop-color="#F1F5F9"/><stop offset="1" stop-color="#64748B"/></linearGradient><linearGradient id="sm-scr" x1="0%" y1="0%" x2="100%" y2="100%"><stop offset="0" stop-color="#38BDF8"/><stop offset="0.5" stop-color="#1D4ED8"/><stop offset="1" stop-color="#1E1B4B"/></linearGradient>
</defs>
<g clip-path="url(#sm-clip)"><rect x="51.2" y="51.2" width="921.6" height="921.6" fill="url(#sm-base)"/><rect x="51.2" y="51.2" width="921.6" height="921.6" fill="url(#sm-bg)"/><rect x="51.2" y="51.2" width="921.6" height="460" fill="url(#sm-spec)"/></g>
<rect x="55" y="55" width="914" height="914" rx="199" ry="199" fill="none" stroke="url(#sm-rim)" stroke-width="7"/>
<g filter="url(#sm-sh)" transform="rotate(8 512 520)"><rect x="352" y="206" width="320" height="620" rx="54" fill="url(#sm-d)" stroke="url(#sm-m)" stroke-width="10"/>
<rect x="374" y="240" width="276" height="552" rx="34" fill="url(#sm-scr)"/><rect x="460" y="252" width="104" height="22" rx="11" fill="#0B1220"/>
<circle cx="512" cy="520" r="76" fill="none" stroke="#fff" stroke-opacity=".85" stroke-width="12"/><path d="M512 470 v52 l34 22" stroke="#fff" stroke-width="12" fill="none" stroke-linecap="round"/>
<path d="M374 240 H650 V420 Q512 330 374 460Z" fill="#fff" opacity=".1"/></g>
</svg>