<svg viewBox="0 0 1024 1024" width="1024" height="1024" xmlns="http://www.w3.org/2000/svg">
<defs>
<filter id="diag-glow" x="-30%" y="-30%" width="160%" height="160%"><feDropShadow dx="0" dy="0" stdDeviation="12" flood-color="#38BDF8" flood-opacity="0.95"/></filter>
<filter id="diag-shadow" x="-20%" y="-20%" width="140%" height="140%"><feDropShadow dx="-8" dy="16" stdDeviation="14" flood-color="#010B1A" flood-opacity="0.9"/><feDropShadow dx="0" dy="0" stdDeviation="10" flood-color="#0EA5E9" flood-opacity="0.35"/></filter>
<linearGradient id="diag-base" x1="0%" y1="0%" x2="100%" y2="100%"><stop offset="0%" stop-color="#0F2A4D"/><stop offset="45%" stop-color="#0B1F3A"/><stop offset="100%" stop-color="#040D1C"/></linearGradient>
<radialGradient id="diag-bg-glow" cx="30%" cy="22%" r="80%"><stop offset="0%" stop-color="#0EA5E9" stop-opacity="0.34"/><stop offset="50%" stop-color="#0369A1" stop-opacity="0.12"/><stop offset="100%" stop-color="#0EA5E9" stop-opacity="0"/></radialGradient>
<linearGradient id="diag-rim" x1="15%" y1="10%" x2="85%" y2="90%"><stop offset="0%" stop-color="#E0F2FE" stop-opacity="0.95"/><stop offset="28%" stop-color="#38BDF8" stop-opacity="0.85"/><stop offset="62%" stop-color="#0369A1" stop-opacity="0.4"/><stop offset="100%" stop-color="#082F49" stop-opacity="0.15"/></linearGradient>
<linearGradient id="diag-spec" x1="0" y1="0" x2="0" y2="1"><stop offset="0%" stop-color="#fff" stop-opacity="0.26"/><stop offset="35%" stop-color="#7DD3FC" stop-opacity="0.06"/><stop offset="100%" stop-color="#fff" stop-opacity="0"/></linearGradient>
<linearGradient id="diag-ring" x1="10%" y1="0%" x2="90%" y2="100%"><stop offset="0%" stop-color="#E0F2FE"/><stop offset="40%" stop-color="#38BDF8"/><stop offset="100%" stop-color="#075985"/></linearGradient>
<radialGradient id="diag-lens" cx="50%" cy="50%" r="50%"><stop offset="0%" stop-color="#0C4A6E" stop-opacity="0.75"/><stop offset="70%" stop-color="#082F49" stop-opacity="0.55"/><stop offset="100%" stop-color="#0369A1" stop-opacity="0.35"/></radialGradient>
<linearGradient id="diag-sweep" x1="0" y1="1" x2="1" y2="0"><stop offset="0%" stop-color="#38BDF8" stop-opacity="0.75"/><stop offset="100%" stop-color="#38BDF8" stop-opacity="0"/></linearGradient>
<linearGradient id="diag-shield" x1="20%" y1="0%" x2="80%" y2="100%"><stop offset="0%" stop-color="#BAE6FD"/><stop offset="35%" stop-color="#38BDF8"/><stop offset="100%" stop-color="#0369A1"/></linearGradient>
<linearGradient id="diag-ecg" x1="0" y1="0" x2="1" y2="0"><stop offset="0%" stop-color="#7DD3FC" stop-opacity="0"/><stop offset="30%" stop-color="#7DD3FC"/><stop offset="70%" stop-color="#F0F9FF"/><stop offset="100%" stop-color="#7DD3FC" stop-opacity="0"/></linearGradient>
<clipPath id="diag-clip"><rect x="51.2" y="51.2" width="921.6" height="921.6" rx="202.75" ry="202.75"/></clipPath>
<clipPath id="diag-lens-clip"><circle cx="512" cy="512" r="268"/></clipPath>
</defs>
<g clip-path="url(#diag-clip)">
<rect x="51.2" y="51.2" width="921.6" height="921.6" fill="url(#diag-base)"/>
<rect x="51.2" y="51.2" width="921.6" height="921.6" fill="url(#diag-bg-glow)"/>
<rect x="51.2" y="51.2" width="921.6" height="460" fill="url(#diag-spec)"/>
</g>
<rect x="55" y="55" width="914" height="914" rx="199" ry="199" fill="none" stroke="url(#diag-rim)" stroke-width="7"/>
<g filter="url(#diag-shadow)">
<circle cx="512" cy="512" r="268" fill="url(#diag-lens)"/>
<g clip-path="url(#diag-lens-clip)">
<path d="M512 512 L465.5 248.1 A268 268 0 0 1 763.8 420.3 Z" fill="url(#diag-sweep)"/>
<circle cx="512" cy="512" r="190" fill="none" stroke="#38BDF8" stroke-opacity="0.45" stroke-width="3" stroke-dasharray="4 12"/>
<circle cx="512" cy="512" r="120" fill="none" stroke="#38BDF8" stroke-opacity="0.55" stroke-width="3"/>
<line x1="512" y1="244" x2="512" y2="780" stroke="#38BDF8" stroke-opacity="0.22" stroke-width="2"/>
<line x1="244" y1="512" x2="780" y2="512" stroke="#38BDF8" stroke-opacity="0.22" stroke-width="2"/>
<circle cx="640" cy="372" r="11" fill="#F0F9FF" filter="url(#diag-glow)"/>
<circle cx="378" cy="612" r="9" fill="#7DD3FC" filter="url(#diag-glow)" opacity="0.9"/>
<circle cx="668" cy="610" r="7" fill="#7DD3FC" filter="url(#diag-glow)" opacity="0.75"/>
</g>
<circle cx="512" cy="512" r="268" fill="none" stroke="url(#diag-ring)" stroke-width="14"/>
<circle cx="512" cy="512" r="276" fill="none" stroke="#F0F9FF" stroke-opacity="0.35" stroke-width="2"/>
</g>
<line x1="512.0" y1="220.0" x2="512.0" y2="194.0" stroke="#BAE6FD" stroke-opacity="0.95" stroke-width="7" stroke-linecap="round"/><line x1="538.1" y1="213.1" x2="539.7" y2="195.2" stroke="#38BDF8" stroke-opacity="0.5" stroke-width="4" stroke-linecap="round"/><line x1="564.1" y1="216.6" x2="567.2" y2="198.8" stroke="#38BDF8" stroke-opacity="0.5" stroke-width="4" stroke-linecap="round"/><line x1="589.6" y1="222.2" x2="594.3" y2="204.8" stroke="#38BDF8" stroke-opacity="0.5" stroke-width="4" stroke-linecap="round"/><line x1="614.6" y1="230.1" x2="620.8" y2="213.2" stroke="#38BDF8" stroke-opacity="0.5" stroke-width="4" stroke-linecap="round"/><line x1="638.8" y1="240.1" x2="646.4" y2="223.8" stroke="#38BDF8" stroke-opacity="0.5" stroke-width="4" stroke-linecap="round"/><line x1="658.0" y1="259.1" x2="671.0" y2="236.6" stroke="#BAE6FD" stroke-opacity="0.95" stroke-width="7" stroke-linecap="round"/><line x1="684.1" y1="266.3" x2="694.4" y2="251.5" stroke="#38BDF8" stroke-opacity="0.5" stroke-width="4" stroke-linecap="round"/><line x1="704.8" y1="282.2" x2="716.4" y2="268.4" stroke="#38BDF8" stroke-opacity="0.5" stroke-width="4" stroke-linecap="round"/><line x1="724.1" y1="299.9" x2="736.9" y2="287.1" stroke="#38BDF8" stroke-opacity="0.5" stroke-width="4" stroke-linecap="round"/><line x1="741.8" y1="319.2" x2="755.6" y2="307.6" stroke="#38BDF8" stroke-opacity="0.5" stroke-width="4" stroke-linecap="round"/><line x1="757.7" y1="339.9" x2="772.5" y2="329.6" stroke="#38BDF8" stroke-opacity="0.5" stroke-width="4" stroke-linecap="round"/><line x1="764.9" y1="366.0" x2="787.4" y2="353.0" stroke="#BAE6FD" stroke-opacity="0.95" stroke-width="7" stroke-linecap="round"/><line x1="783.9" y1="385.2" x2="800.2" y2="377.6" stroke="#38BDF8" stroke-opacity="0.5" stroke-width="4" stroke-linecap="round"/><line x1="793.9" y1="409.4" x2="810.8" y2="403.2" stroke="#38BDF8" stroke-opacity="0.5" stroke-width="4" stroke-linecap="round"/><line x1="801.8" y1="434.4" x2="819.2" y2="429.7" stroke="#38BDF8" stroke-opacity="0.5" stroke-width="4" stroke-linecap="round"/><line x1="807.4" y1="459.9" x2="825.2" y2="456.8" stroke="#38BDF8" stroke-opacity="0.5" stroke-width="4" stroke-linecap="round"/><line x1="810.9" y1="485.9" x2="828.8" y2="484.3" stroke="#38BDF8" stroke-opacity="0.5" stroke-width="4" stroke-linecap="round"/><line x1="804.0" y1="512.0" x2="830.0" y2="512.0" stroke="#BAE6FD" stroke-opacity="0.95" stroke-width="7" stroke-linecap="round"/><line x1="810.9" y1="538.1" x2="828.8" y2="539.7" stroke="#38BDF8" stroke-opacity="0.5" stroke-width="4" stroke-linecap="round"/><line x1="807.4" y1="564.1" x2="825.2" y2="567.2" stroke="#38BDF8" stroke-opacity="0.5" stroke-width="4" stroke-linecap="round"/><line x1="801.8" y1="589.6" x2="819.2" y2="594.3" stroke="#38BDF8" stroke-opacity="0.5" stroke-width="4" stroke-linecap="round"/><line x1="793.9" y1="614.6" x2="810.8" y2="620.8" stroke="#38BDF8" stroke-opacity="0.5" stroke-width="4" stroke-linecap="round"/><line x1="783.9" y1="638.8" x2="800.2" y2="646.4" stroke="#38BDF8" stroke-opacity="0.5" stroke-width="4" stroke-linecap="round"/><line x1="764.9" y1="658.0" x2="787.4" y2="671.0" stroke="#BAE6FD" stroke-opacity="0.95" stroke-width="7" stroke-linecap="round"/><line x1="757.7" y1="684.1" x2="772.5" y2="694.4" stroke="#38BDF8" stroke-opacity="0.5" stroke-width="4" stroke-linecap="round"/><line x1="741.8" y1="704.8" x2="755.6" y2="716.4" stroke="#38BDF8" stroke-opacity="0.5" stroke-width="4" stroke-linecap="round"/><line x1="724.1" y1="724.1" x2="736.9" y2="736.9" stroke="#38BDF8" stroke-opacity="0.5" stroke-width="4" stroke-linecap="round"/><line x1="704.8" y1="741.8" x2="716.4" y2="755.6" stroke="#38BDF8" stroke-opacity="0.5" stroke-width="4" stroke-linecap="round"/><line x1="684.1" y1="757.7" x2="694.4" y2="772.5" stroke="#38BDF8" stroke-opacity="0.5" stroke-width="4" stroke-linecap="round"/><line x1="658.0" y1="764.9" x2="671.0" y2="787.4" stroke="#BAE6FD" stroke-opacity="0.95" stroke-width="7" stroke-linecap="round"/><line x1="638.8" y1="783.9" x2="646.4" y2="800.2" stroke="#38BDF8" stroke-opacity="0.5" stroke-width="4" stroke-linecap="round"/><line x1="614.6" y1="793.9" x2="620.8" y2="810.8" stroke="#38BDF8" stroke-opacity="0.5" stroke-width="4" stroke-linecap="round"/><line x1="589.6" y1="801.8" x2="594.3" y2="819.2" stroke="#38BDF8" stroke-opacity="0.5" stroke-width="4" stroke-linecap="round"/><line x1="564.1" y1="807.4" x2="567.2" y2="825.2" stroke="#38BDF8" stroke-opacity="0.5" stroke-width="4" stroke-linecap="round"/><line x1="538.1" y1="810.9" x2="539.7" y2="828.8" stroke="#38BDF8" stroke-opacity="0.5" stroke-width="4" stroke-linecap="round"/><line x1="512.0" y1="804.0" x2="512.0" y2="830.0" stroke="#BAE6FD" stroke-opacity="0.95" stroke-width="7" stroke-linecap="round"/><line x1="485.9" y1="810.9" x2="484.3" y2="828.8" stroke="#38BDF8" stroke-opacity="0.5" stroke-width="4" stroke-linecap="round"/><line x1="459.9" y1="807.4" x2="456.8" y2="825.2" stroke="#38BDF8" stroke-opacity="0.5" stroke-width="4" stroke-linecap="round"/><line x1="434.4" y1="801.8" x2="429.7" y2="819.2" stroke="#38BDF8" stroke-opacity="0.5" stroke-width="4" stroke-linecap="round"/><line x1="409.4" y1="793.9" x2="403.2" y2="810.8" stroke="#38BDF8" stroke-opacity="0.5" stroke-width="4" stroke-linecap="round"/><line x1="385.2" y1="783.9" x2="377.6" y2="800.2" stroke="#38BDF8" stroke-opacity="0.5" stroke-width="4" stroke-linecap="round"/><line x1="366.0" y1="764.9" x2="353.0" y2="787.4" stroke="#BAE6FD" stroke-opacity="0.95" stroke-width="7" stroke-linecap="round"/><line x1="339.9" y1="757.7" x2="329.6" y2="772.5" stroke="#38BDF8" stroke-opacity="0.5" stroke-width="4" stroke-linecap="round"/><line x1="319.2" y1="741.8" x2="307.6" y2="755.6" stroke="#38BDF8" stroke-opacity="0.5" stroke-width="4" stroke-linecap="round"/><line x1="299.9" y1="724.1" x2="287.1" y2="736.9" stroke="#38BDF8" stroke-opacity="0.5" stroke-width="4" stroke-linecap="round"/><line x1="282.2" y1="704.8" x2="268.4" y2="716.4" stroke="#38BDF8" stroke-opacity="0.5" stroke-width="4" stroke-linecap="round"/><line x1="266.3" y1="684.1" x2="251.5" y2="694.4" stroke="#38BDF8" stroke-opacity="0.5" stroke-width="4" stroke-linecap="round"/><line x1="259.1" y1="658.0" x2="236.6" y2="671.0" stroke="#BAE6FD" stroke-opacity="0.95" stroke-width="7" stroke-linecap="round"/><line x1="240.1" y1="638.8" x2="223.8" y2="646.4" stroke="#38BDF8" stroke-opacity="0.5" stroke-width="4" stroke-linecap="round"/><line x1="230.1" y1="614.6" x2="213.2" y2="620.8" stroke="#38BDF8" stroke-opacity="0.5" stroke-width="4" stroke-linecap="round"/><line x1="222.2" y1="589.6" x2="204.8" y2="594.3" stroke="#38BDF8" stroke-opacity="0.5" stroke-width="4" stroke-linecap="round"/><line x1="216.6" y1="564.1" x2="198.8" y2="567.2" stroke="#38BDF8" stroke-opacity="0.5" stroke-width="4" stroke-linecap="round"/><line x1="213.1" y1="538.1" x2="195.2" y2="539.7" stroke="#38BDF8" stroke-opacity="0.5" stroke-width="4" stroke-linecap="round"/><line x1="220.0" y1="512.0" x2="194.0" y2="512.0" stroke="#BAE6FD" stroke-opacity="0.95" stroke-width="7" stroke-linecap="round"/><line x1="213.1" y1="485.9" x2="195.2" y2="484.3" stroke="#38BDF8" stroke-opacity="0.5" stroke-width="4" stroke-linecap="round"/><line x1="216.6" y1="459.9" x2="198.8" y2="456.8" stroke="#38BDF8" stroke-opacity="0.5" stroke-width="4" stroke-linecap="round"/><line x1="222.2" y1="434.4" x2="204.8" y2="429.7" stroke="#38BDF8" stroke-opacity="0.5" stroke-width="4" stroke-linecap="round"/><line x1="230.1" y1="409.4" x2="213.2" y2="403.2" stroke="#38BDF8" stroke-opacity="0.5" stroke-width="4" stroke-linecap="round"/><line x1="240.1" y1="385.2" x2="223.8" y2="377.6" stroke="#38BDF8" stroke-opacity="0.5" stroke-width="4" stroke-linecap="round"/><line x1="259.1" y1="366.0" x2="236.6" y2="353.0" stroke="#BAE6FD" stroke-opacity="0.95" stroke-width="7" stroke-linecap="round"/><line x1="266.3" y1="339.9" x2="251.5" y2="329.6" stroke="#38BDF8" stroke-opacity="0.5" stroke-width="4" stroke-linecap="round"/><line x1="282.2" y1="319.2" x2="268.4" y2="307.6" stroke="#38BDF8" stroke-opacity="0.5" stroke-width="4" stroke-linecap="round"/><line x1="299.9" y1="299.9" x2="287.1" y2="287.1" stroke="#38BDF8" stroke-opacity="0.5" stroke-width="4" stroke-linecap="round"/><line x1="319.2" y1="282.2" x2="307.6" y2="268.4" stroke="#38BDF8" stroke-opacity="0.5" stroke-width="4" stroke-linecap="round"/><line x1="339.9" y1="266.3" x2="329.6" y2="251.5" stroke="#38BDF8" stroke-opacity="0.5" stroke-width="4" stroke-linecap="round"/><line x1="366.0" y1="259.1" x2="353.0" y2="236.6" stroke="#BAE6FD" stroke-opacity="0.95" stroke-width="7" stroke-linecap="round"/><line x1="385.2" y1="240.1" x2="377.6" y2="223.8" stroke="#38BDF8" stroke-opacity="0.5" stroke-width="4" stroke-linecap="round"/><line x1="409.4" y1="230.1" x2="403.2" y2="213.2" stroke="#38BDF8" stroke-opacity="0.5" stroke-width="4" stroke-linecap="round"/><line x1="434.4" y1="222.2" x2="429.7" y2="204.8" stroke="#38BDF8" stroke-opacity="0.5" stroke-width="4" stroke-linecap="round"/><line x1="459.9" y1="216.6" x2="456.8" y2="198.8" stroke="#38BDF8" stroke-opacity="0.5" stroke-width="4" stroke-linecap="round"/><line x1="485.9" y1="213.1" x2="484.3" y2="195.2" stroke="#38BDF8" stroke-opacity="0.5" stroke-width="4" stroke-linecap="round"/>
<path d="M246 512 H392 L430 440 L476 600 L520 410 L560 540 L596 512 H778" fill="none" stroke="url(#diag-ecg)" stroke-width="13" stroke-linecap="round" stroke-linejoin="round" filter="url(#diag-glow)"/>
<g filter="url(#diag-shadow)">
<path d="M512 430 L578 456 V516 C578 556 550 584 512 600 C474 584 446 556 446 516 V456 Z" fill="url(#diag-shield)" stroke="#E0F2FE" stroke-opacity="0.9" stroke-width="5" stroke-linejoin="round"/>
<path d="M512 430 L578 456 V516 C578 556 550 584 512 600 Z" fill="#0369A1" opacity="0.35"/>
<path d="M512 446 L564 466 V516 C564 546 542 568 512 582 C482 568 460 546 460 516 V466 Z" fill="none" stroke="#fff" stroke-opacity="0.35" stroke-width="3"/>
<circle cx="512" cy="512" r="22" fill="#F0F9FF" filter="url(#diag-glow)"/>
<circle cx="512" cy="512" r="10" fill="#0EA5E9"/>
</g>
<g fill="none" stroke="#7DD3FC" stroke-width="12" stroke-linecap="round" stroke-linejoin="round" filter="url(#diag-glow)" opacity="0.95">
<path d="M196 300 V232 Q196 196 232 196 H300"/><path d="M724 196 H792 Q828 196 828 232 V300"/>
<path d="M196 724 V792 Q196 828 232 828 H300"/><path d="M724 828 H792 Q828 828 828 792 V724"/>
</g>
</svg>