<svg viewBox="0 0 1024 1024" width="1024" height="1024" xmlns="http://www.w3.org/2000/svg">
<defs>
<filter id="tno-glow" x="-40%" y="-40%" width="180%" height="180%"><feDropShadow dx="0" dy="0" stdDeviation="14" flood-color="#818CF8" flood-opacity="0.9"/></filter>
<filter id="tno-sh" x="-20%" y="-20%" width="140%" height="140%"><feDropShadow dx="-8" dy="16" stdDeviation="14" flood-color="#000" flood-opacity="0.85"/></filter>
<linearGradient id="tno-base" x1="0%" y1="0%" x2="100%" y2="100%"><stop offset="0%" stop-color="#1B1B4D"/><stop offset="45%" stop-color="#0F1033"/><stop offset="100%" stop-color="#05061A"/></linearGradient>
<radialGradient id="tno-bg" cx="30%" cy="22%" r="80%"><stop offset="0%" stop-color="#818CF8" stop-opacity="0.34"/><stop offset="55%" stop-color="#818CF8" stop-opacity="0.1"/><stop offset="100%" stop-color="#818CF8" stop-opacity="0"/></radialGradient>
<linearGradient id="tno-rim" x1="15%" y1="10%" x2="85%" y2="90%"><stop offset="0%" stop-color="#E0E7FF" stop-opacity="0.95"/><stop offset="28%" stop-color="#818CF8" stop-opacity="0.85"/><stop offset="62%" stop-color="#4338CA" stop-opacity="0.4"/><stop offset="100%" stop-color="#1E1B4B" stop-opacity="0.15"/></linearGradient>
<linearGradient id="tno-spec" x1="0" y1="0" x2="0" y2="1"><stop offset="0%" stop-color="#fff" stop-opacity="0.26"/><stop offset="35%" stop-color="#fff" stop-opacity="0.05"/><stop offset="100%" stop-color="#fff" stop-opacity="0"/></linearGradient>
<clipPath id="tno-clip"><rect x="51.2" y="51.2" width="921.6" height="921.6" rx="202.75" ry="202.75"/></clipPath>
<linearGradient id="tno-moon" x1="15%" y1="0%" x2="85%" y2="100%"><stop offset="0%" stop-color="#EEF2FF"/><stop offset="45%" stop-color="#A5B4FC"/><stop offset="100%" stop-color="#4338CA"/></linearGradient>
</defs>
<g clip-path="url(#tno-clip)"><rect x="51.2" y="51.2" width="921.6" height="921.6" fill="url(#tno-base)"/><rect x="51.2" y="51.2" width="921.6" height="921.6" fill="url(#tno-bg)"/><rect x="51.2" y="51.2" width="921.6" height="460" fill="url(#tno-spec)"/></g>
<rect x="55" y="55" width="914" height="914" rx="199" ry="199" fill="none" stroke="url(#tno-rim)" stroke-width="7"/>
<g transform="translate(470 520) scale(1.0)" filter="url(#tno-glow)"><mask id="tno-m100"><rect x="-300" y="-300" width="600" height="600" fill="#fff"/><circle cx="92" cy="-62" r="152" fill="#000"/></mask>
<circle r="204" fill="url(#tno-moon)" mask="url(#tno-m100)"/><circle r="204" fill="none" stroke="#E0E7FF" stroke-opacity="0.7" stroke-width="5" mask="url(#tno-m100)"/></g><g filter="url(#tno-glow)"><path d="M720 286 Q727.92 322.08 764 330 Q727.92 337.92 720 374 Q712.08 337.92 676 330 Q712.08 322.08 720 286Z" fill="#EEF2FF" opacity="1"/><path d="M650 226 Q654.32 245.68 674 250 Q654.32 254.32 650 274 Q645.68 254.32 626 250 Q645.68 245.68 650 226Z" fill="#EEF2FF" opacity="0.8"/><path d="M760 450 Q763.6 466.4 780 470 Q763.6 473.6 760 490 Q756.4 473.6 740 470 Q756.4 466.4 760 450Z" fill="#EEF2FF" opacity="0.7"/></g>
</svg>