<svg viewBox="0 0 1024 1024" width="1024" height="1024" xmlns="http://www.w3.org/2000/svg">
<defs>
<filter id="sol-glow" x="-40%" y="-40%" width="180%" height="180%"><feDropShadow dx="0" dy="0" stdDeviation="14" flood-color="#FBBF24" flood-opacity="0.9"/></filter>
<filter id="sol-sh" x="-20%" y="-20%" width="140%" height="140%"><feDropShadow dx="-8" dy="16" stdDeviation="14" flood-color="#000" flood-opacity="0.85"/></filter>
<linearGradient id="sol-base" x1="0%" y1="0%" x2="100%" y2="100%"><stop offset="0%" stop-color="#7C3A06"/><stop offset="45%" stop-color="#4A2204"/><stop offset="100%" stop-color="#1F0E02"/></linearGradient>
<radialGradient id="sol-bg" cx="30%" cy="22%" r="80%"><stop offset="0%" stop-color="#FBBF24" stop-opacity="0.34"/><stop offset="55%" stop-color="#FBBF24" stop-opacity="0.1"/><stop offset="100%" stop-color="#FBBF24" stop-opacity="0"/></radialGradient>
<linearGradient id="sol-rim" x1="15%" y1="10%" x2="85%" y2="90%"><stop offset="0%" stop-color="#FEF3C7" stop-opacity="0.95"/><stop offset="28%" stop-color="#FBBF24" stop-opacity="0.85"/><stop offset="62%" stop-color="#B45309" stop-opacity="0.4"/><stop offset="100%" stop-color="#451A03" stop-opacity="0.15"/></linearGradient>
<linearGradient id="sol-spec" x1="0" y1="0" x2="0" y2="1"><stop offset="0%" stop-color="#fff" stop-opacity="0.26"/><stop offset="35%" stop-color="#fff" stop-opacity="0.05"/><stop offset="100%" stop-color="#fff" stop-opacity="0"/></linearGradient>
<clipPath id="sol-clip"><rect x="51.2" y="51.2" width="921.6" height="921.6" rx="202.75" ry="202.75"/></clipPath>
<linearGradient id="sol-g" x1="0%" y1="0%" x2="100%" y2="100%"><stop offset="0" stop-color="#FEF9C3"/><stop offset="0.5" stop-color="#FBBF24"/><stop offset="1" stop-color="#D97706"/></linearGradient>
</defs>
<g clip-path="url(#sol-clip)"><rect x="51.2" y="51.2" width="921.6" height="921.6" fill="url(#sol-base)"/><rect x="51.2" y="51.2" width="921.6" height="921.6" fill="url(#sol-bg)"/><rect x="51.2" y="51.2" width="921.6" height="460" fill="url(#sol-spec)"/></g>
<rect x="55" y="55" width="914" height="914" rx="199" ry="199" fill="none" stroke="url(#sol-rim)" stroke-width="7"/>
<g filter="url(#sol-glow)"><line x1="512" y1="170" x2="512" y2="250" transform="rotate(0 512 512)" stroke="#FDE68A" stroke-width="30" stroke-linecap="round"/><line x1="512" y1="170" x2="512" y2="250" transform="rotate(45 512 512)" stroke="#FDE68A" stroke-width="30" stroke-linecap="round"/><line x1="512" y1="170" x2="512" y2="250" transform="rotate(90 512 512)" stroke="#FDE68A" stroke-width="30" stroke-linecap="round"/><line x1="512" y1="170" x2="512" y2="250" transform="rotate(135 512 512)" stroke="#FDE68A" stroke-width="30" stroke-linecap="round"/><line x1="512" y1="170" x2="512" y2="250" transform="rotate(180 512 512)" stroke="#FDE68A" stroke-width="30" stroke-linecap="round"/><line x1="512" y1="170" x2="512" y2="250" transform="rotate(225 512 512)" stroke="#FDE68A" stroke-width="30" stroke-linecap="round"/><line x1="512" y1="170" x2="512" y2="250" transform="rotate(270 512 512)" stroke="#FDE68A" stroke-width="30" stroke-linecap="round"/><line x1="512" y1="170" x2="512" y2="250" transform="rotate(315 512 512)" stroke="#FDE68A" stroke-width="30" stroke-linecap="round"/></g><g filter="url(#sol-sh)"><circle cx="512" cy="512" r="170" fill="url(#sol-g)" stroke="#FFFBEB" stroke-width="8"/><ellipse cx="460" cy="450" rx="70" ry="40" fill="#fff" opacity=".4" transform="rotate(-30 460 450)"/></g>
</svg>